<svg id="Calque_1" data-name="Calque 1" xmlns="http://www.w3.org/2000/svg" viewBox="0 0 419.47 270.41"><path d="M198.22,34h55.36V292.1L89.19,141.45V279.81h-55V21.7L198.22,172.35Z" transform="translate(-34.17 -21.7)"/><path d="M352.42,216.6q0,14.4,5.09,22.12t17.67,7.73q12.22,0,19.7-7.9t7.47-22V118.27h51.29V279.81H402.35V257a56.67,56.67,0,0,1-19,19.31q-11.9,7.38-28.53,7.38-29.22,0-42.63-15.81t-13.42-45.65V118.27h53.67Z" transform="translate(-34.17 -21.7)"/><polygon style="fill:#a89e9a!important;" class="cls-1" points="291.99 18.63 331.39 0.02 382.34 56.21 353.13 71.31 291.99 18.63"/></svg>