<?xml version="1.0" standalone="no"?>
<!DOCTYPE svg PUBLIC "-//W3C//DTD SVG 20010904//EN"
 "http://www.w3.org/TR/2001/REC-SVG-20010904/DTD/svg10.dtd">
<svg version="1.0" xmlns="http://www.w3.org/2000/svg"
 width="202.000000pt" height="401.000000pt" viewBox="0 0 202.000000 401.000000"
 preserveAspectRatio="xMidYMid meet">
<metadata>
Created by potrace 1.16, written by Peter Selinger 2001-2019
</metadata>
<g transform="translate(0.000000,401.000000) scale(0.100000,-0.100000)"
fill="#000000" stroke="none">
<path d="M73 3994 c-68 -34 -63 120 -63 -1994 0 -1715 2 -1914 16 -1941 27
-54 57 -59 329 -59 275 0 295 4 321 65 20 49 18 171 -4 215 -26 52 -50 60
-194 60 l-128 0 0 1665 0 1665 134 0 c119 0 136 2 159 21 36 28 50 82 45 173
-3 70 -6 79 -36 109 l-32 32 -258 3 c-219 2 -262 0 -289 -14z"/>
<path d="M1403 3994 c-49 -25 -66 -70 -61 -175 3 -81 5 -91 31 -116 27 -27 31
-28 165 -33 l137 -5 3 -1662 2 -1663 -133 0 c-145 0 -164 -6 -192 -60 -21 -40
-20 -181 1 -221 27 -54 57 -59 324 -59 275 0 301 5 325 65 13 30 15 282 13
1955 l-3 1920 -33 32 -32 33 -258 3 c-219 2 -262 0 -289 -14z"/>
</g>
</svg>
